<svg xmlns="http://www.w3.org/2000/svg" width="362" height="492" viewBox="0 0 362 492" role="img" aria-label="El Pueblo — Olmec head logo">
<defs>
<linearGradient id="onm" x1="0" y1="0" x2="0" y2="1"><stop offset="0" stop-color="#ffe08a"/><stop offset=".5" stop-color="#ff8a3d"/><stop offset="1" stop-color="#ff4d8d"/></linearGradient>
<filter id="og" x="-15%" y="-12%" width="130%" height="126%"><feGaussianBlur stdDeviation="2.1" result="b"/><feMerge><feMergeNode in="b"/><feMergeNode in="b"/><feMergeNode in="SourceGraphic"/></feMerge></filter>
</defs>
<rect width="362" height="492" rx="46" fill="#0a0c18"/>
<g transform="translate(20,20)" filter="url(#og)"><path d="M 161.338 56.094 C 127.909 59.990, 101.187 71.670, 78.207 92.428 C 73.823 96.388, 64.044 109.075, 59.880 116.206 C 54.762 124.969, 49.668 137.451, 47.925 145.500 C 47.119 149.220, 45.392 153.136, 43.380 155.805 C 39.917 160.400, 38.681 164.745, 34.929 185.500 C 33.620 192.744, 32.709 202.118, 32.630 209.152 C 32.509 220.001, 32.666 221.029, 34.912 224.080 L 37.323 227.356 36.116 243.428 C 33.409 279.453, 32.034 303.525, 31.933 316.645 C 31.839 328.885, 32.070 330.962, 33.913 334.461 C 35.061 336.640, 36 339.648, 36 341.146 C 36 344.772, 38.565 356.807, 40.366 361.635 C 41.160 363.761, 42.324 368.871, 42.954 372.991 C 45.759 391.346, 51.491 400.944, 64.825 409.612 C 69.596 412.714, 75.750 416.758, 78.500 418.598 C 89.454 425.931, 102.565 428.175, 132.887 427.908 C 144.774 427.803, 158.550 427.342, 163.500 426.884 C 192.782 424.172, 217.484 420.611, 235.500 416.505 C 243.750 414.624, 255.675 412.140, 262 410.984 C 282.433 407.249, 293.149 403.295, 301.744 396.320 C 306.999 392.056, 310.131 386.787, 313.416 376.687 C 314.814 372.391, 317.317 367.226, 318.979 365.210 L 322 361.544 321.853 342.522 L 321.707 323.500 320.934 335.592 C 320.510 342.243, 319.658 349.556, 319.042 351.842 C 318.030 355.601, 317.621 356, 314.777 356 C 309.785 356, 303.762 359.540, 299.707 364.857 C 293.129 373.483, 282.233 382.566, 280.520 380.853 C 280.260 380.594, 280.679 375.458, 281.449 369.441 C 282.220 363.423, 283.125 354.450, 283.461 349.500 C 283.796 344.550, 284.314 337.998, 284.611 334.941 L 285.152 329.381 289.960 331.760 C 294.158 333.838, 295.272 334.004, 298.750 333.067 C 302.992 331.925, 307.298 328.259, 309.580 323.845 C 310.347 322.362, 311.697 316.953, 312.581 311.824 C 313.663 305.545, 315.463 299.825, 318.094 294.310 C 321.640 286.874, 321.994 285.400, 321.930 278.310 C 321.861 270.738, 321.820 270.607, 320.563 274.016 C 319.850 275.950, 316.976 282.700, 314.177 289.016 C 310.756 296.737, 308.589 303.370, 307.566 309.258 C 305.849 319.133, 304.230 322.887, 300.385 325.912 C 295.276 329.931, 290.258 327.862, 287.482 320.591 C 285.907 316.468, 285.902 314.287, 287.406 287.339 C 288.290 271.478, 289.011 257.387, 289.007 256.028 C 289.002 254.297, 290.200 255.902, 293 261.377 C 297.661 270.491, 297.889 272.790, 294.528 276.784 C 289.294 283.004, 288.979 289.265, 293.712 292.988 C 299.030 297.171, 304.841 294.062, 307.023 285.865 C 307.662 283.464, 309.332 279.984, 310.734 278.131 C 312.137 276.277, 314.099 272.677, 315.095 270.131 C 316.091 267.584, 316.927 266.094, 316.953 266.820 C 316.981 267.607, 317.907 268.010, 319.250 267.820 C 321.439 267.509, 321.508 267.132, 321.808 254 C 322.060 242.929, 321.817 239.934, 320.455 237.352 C 318.139 232.960, 313.308 230.532, 308.629 231.410 C 301.684 232.713, 296.220 244.234, 297.466 254.947 L 297.996 259.500 296.433 256.097 C 292.464 247.458, 293.811 236.561, 299.582 230.618 C 306.142 223.864, 314.247 223.744, 319.511 230.322 L 322.053 233.500 321.776 228.012 L 321.500 222.525 314.500 219.707 C 304.597 215.721, 290.738 211.357, 274.358 207.066 L 270.216 205.981 270.742 195.676 C 271.330 184.159, 270.665 181.912, 265.944 179.471 C 262.837 177.864, 239.253 172.675, 229.544 171.462 C 224.221 170.797, 224 170.651, 224 167.805 C 224 165.109, 224.249 164.889, 226.750 165.373 C 228.262 165.666, 234.367 166.672, 240.315 167.610 L 251.130 169.314 253.315 167.131 C 255.192 165.255, 255.549 163.612, 255.847 155.474 C 256.221 145.239, 256.135 145.354, 262.193 147.037 C 265.551 147.970, 265.940 148.446, 266.477 152.281 C 266.802 154.602, 266.652 159.650, 266.144 163.500 C 265.466 168.642, 265.537 170.836, 266.412 171.766 C 267.067 172.462, 271.677 174.147, 276.656 175.512 C 289.450 179.018, 306.237 185.449, 314.818 190.132 L 322.136 194.126 321.818 190.813 C 321.536 187.872, 320.789 187.124, 315.167 184.151 C 307.632 180.167, 291.632 174.034, 280.046 170.689 L 271.708 168.282 271.921 159.407 C 272.039 154.526, 272.317 150.349, 272.541 150.126 C 273.550 149.117, 300.056 158.723, 310.555 163.903 L 322.205 169.650 321.776 158.575 C 321.422 149.443, 320.806 145.982, 318.262 138.845 C 310.467 116.978, 299.422 100.632, 283.411 87.267 C 262.949 70.187, 239.652 60.384, 210.212 56.465 C 198.693 54.932, 172.986 54.737, 161.338 56.094 M 166.500 61.109 C 148.332 62.802, 125.266 68.643, 120.794 72.684 C 117.500 75.660, 114.087 83.455, 112.806 90.928 C 112.145 94.783, 111.832 98.166, 112.112 98.445 C 112.391 98.724, 117.976 98.289, 124.522 97.476 C 131.068 96.664, 138.383 96, 140.778 96 C 143.172 96, 145.937 95.569, 146.921 95.042 C 147.906 94.515, 150.815 90.353, 153.387 85.792 C 158.081 77.469, 165.047 69.263, 172.500 63.279 C 174.700 61.512, 176.275 60.113, 176 60.169 C 175.725 60.225, 171.450 60.648, 166.500 61.109 M 181.913 64.201 C 173.225 68.543, 163.811 78.268, 157.652 89.262 C 154.986 94.023, 152.126 98.480, 151.297 99.168 C 150.468 99.856, 145.458 100.887, 140.164 101.460 L 130.537 102.500 129.436 107.500 C 128.830 110.250, 128.063 114.188, 127.730 116.250 C 127.155 119.820, 127.258 120, 129.872 120 C 134.425 120, 136.457 122.207, 136.268 126.948 L 136.102 131.105 140.756 130.803 L 145.411 130.500 148.130 121.103 C 151.725 108.679, 152.867 107.612, 163.061 107.149 L 171.080 106.785 174.083 100.835 C 183.310 82.558, 197.556 66.859, 208 63.461 L 210.500 62.647 208 61.923 C 206.625 61.525, 201.634 61.155, 196.910 61.100 C 189.139 61.010, 187.708 61.306, 181.913 64.201 M 214.214 66.830 C 202.727 70.930, 192.202 80.577, 183.794 94.712 C 179.058 102.673, 173.403 114.760, 174.108 115.411 C 174.324 115.610, 179.122 115.936, 184.771 116.136 L 195.043 116.500 198.365 108.869 C 206.815 89.463, 220.891 74.240, 234.807 69.456 L 238.426 68.212 234.463 67.051 C 227.067 64.884, 219.885 64.806, 214.214 66.830 M 236.048 75.033 C 224.597 79.151, 213.107 91.267, 205.078 107.691 C 202.781 112.390, 201.128 116.461, 201.404 116.737 C 201.680 117.013, 205.864 117.633, 210.703 118.114 C 247.007 121.724, 279.862 129.878, 304.396 141.366 C 309.839 143.915, 314.427 146, 314.592 146 C 315.442 146, 310.368 133.277, 306.018 124.500 C 296.573 105.444, 277.963 86.835, 258.644 77.130 C 249.159 72.365, 244.634 71.945, 236.048 75.033 M 104.413 79.937 C 98.718 83.203, 96.883 85.550, 94.032 93.218 C 91.754 99.343, 87.857 115.190, 88.477 115.810 C 88.708 116.042, 90.240 115.763, 91.881 115.191 C 98.875 112.753, 101.225 116.264, 100.335 127.817 L 99.729 135.670 103.937 135.085 C 107.982 134.523, 108.215 134.293, 109.943 129.180 C 112.142 122.671, 112.908 121.863, 117.601 121.100 L 121.304 120.498 123.024 111.999 C 123.969 107.325, 124.672 103.408, 124.584 103.296 C 124.497 103.184, 121.556 103.497, 118.048 103.993 C 107.304 105.512, 105.210 102.780, 107.420 90.123 C 108.175 85.795, 109.290 81.327, 109.897 80.193 C 112.100 76.076, 111.216 76.034, 104.413 79.937 M 80.188 98.750 C 76.067 103.013, 70.795 109.425, 68.474 113 C 63.955 119.959, 56.641 133.975, 57.224 134.558 C 57.418 134.752, 59.810 133.845, 62.539 132.543 C 65.267 131.242, 70.425 129.196, 74 127.997 C 77.575 126.799, 80.606 125.716, 80.736 125.590 C 80.866 125.464, 81.858 120.217, 82.940 113.931 C 84.022 107.644, 85.804 99.912, 86.900 96.750 C 87.996 93.588, 88.620 91, 88.287 91 C 87.954 91, 84.310 94.487, 80.188 98.750 M 156.135 114.750 C 155.620 115.713, 154.418 119.200, 153.464 122.500 C 152.510 125.800, 151.507 129.087, 151.237 129.804 C 150.860 130.802, 152.100 131.036, 156.534 130.804 L 162.323 130.500 164.544 123.904 C 165.765 120.277, 167.283 116.339, 167.917 115.154 C 169.038 113.060, 168.904 113, 163.070 113 C 158.379 113, 156.866 113.382, 156.135 114.750 M 90.334 121.223 C 87.349 122.183, 87.131 122.590, 86.512 128.371 C 86.151 131.742, 85.612 135.353, 85.314 136.396 C 84.822 138.118, 85.169 138.229, 89.099 137.600 C 91.478 137.220, 93.571 136.763, 93.749 136.585 C 94.565 135.768, 95.176 120.011, 94.387 120.102 C 93.899 120.158, 92.075 120.662, 90.334 121.223 M 169.609 126.020 C 168.724 128.231, 168 130.256, 168 130.520 C 168 130.784, 172.613 131.002, 178.250 131.005 C 191.332 131.011, 217.887 133.349, 235.638 136.057 C 259.940 139.764, 292.414 149.049, 310.812 157.549 C 316.183 160.030, 318.036 160.535, 317.600 159.399 C 317.270 158.540, 317 157.012, 317 156.004 C 317 153.719, 299.462 144.534, 285.236 139.369 C 257.686 129.366, 214.116 122.011, 182.359 122.003 L 171.217 122 169.609 126.020 M 123.712 126 C 116.731 126.514, 115.046 127.559, 115.015 131.397 C 115.001 133.151, 115.575 133.245, 122.668 132.645 C 126.886 132.289, 130.517 131.816, 130.739 131.595 C 130.960 131.373, 130.997 129.912, 130.821 128.346 L 130.500 125.500 123.712 126 M 72.493 134.412 C 60.620 138.985, 54.287 142.721, 53.571 145.572 C 53.204 147.037, 53.048 148.381, 53.226 148.559 C 53.403 148.736, 55.550 147.985, 57.997 146.890 C 60.444 145.795, 66.395 143.716, 71.223 142.271 L 80 139.643 80 135.822 C 80 133.720, 79.662 132.022, 79.250 132.049 C 78.838 132.076, 75.797 133.139, 72.493 134.412 M 148.895 136.735 C 143.343 137.088, 143.278 137.128, 142.121 140.992 C 140.179 147.473, 137.886 148.529, 122.813 149.888 C 115.491 150.548, 107.862 151.343, 105.860 151.654 C 101.341 152.357, 98 149.529, 98 145 C 98 141.605, 97.503 141.484, 90.080 143.076 C 84.268 144.323, 84.740 143.005, 82.910 163.098 C 81.881 174.382, 81.938 176.068, 83.458 179.270 C 86.313 185.286, 90.126 186.408, 103.366 185.127 C 109.490 184.534, 118.775 183.772, 124 183.434 C 136.667 182.614, 140.390 181.546, 144.954 177.423 C 149.945 172.914, 151.239 170.016, 155.458 153.903 C 157.388 146.531, 159.252 139.488, 159.600 138.250 C 160.158 136.268, 159.892 136.022, 157.367 136.189 C 155.790 136.293, 151.978 136.539, 148.895 136.735 M 165.673 138.143 C 165.346 139.391, 165.274 140.608, 165.513 140.846 C 165.751 141.085, 170.796 141.449, 176.723 141.657 C 196.176 142.338, 214.178 144.117, 217.463 145.684 C 221.402 147.562, 223.225 150.321, 223.944 155.496 L 224.500 159.491 236.796 161.367 C 243.558 162.398, 249.313 163.020, 249.585 162.748 C 249.857 162.476, 250.352 158.386, 250.686 153.658 C 251.279 145.257, 251.238 145.041, 248.896 144.151 C 242.493 141.719, 205.670 137.602, 180.383 136.492 C 166.312 135.875, 166.265 135.880, 165.673 138.143 M 117.508 138.866 C 103.238 140.532, 101.559 141.263, 103.847 144.809 C 104.526 145.862, 106.724 145.912, 115.095 145.065 C 120.818 144.486, 127.477 143.859, 129.893 143.671 C 134.230 143.334, 137 141.244, 137 138.309 C 137 136.716, 135.573 136.757, 117.508 138.866 M 68.500 148.962 C 56.536 153.166, 51.238 155.671, 48.483 158.426 C 44.181 162.728, 45.748 162.873, 53.750 158.914 C 58.013 156.805, 65.325 153.989, 70 152.656 C 76.937 150.679, 78.559 149.844, 78.820 148.117 C 79.226 145.425, 78.364 145.496, 68.500 148.962 M 161.676 152.100 C 160.821 155.070, 159.571 159.750, 158.898 162.500 C 155.930 174.620, 150.411 182.286, 142.070 185.875 C 138.152 187.560, 132.732 188.326, 115.328 189.653 C 103.323 190.569, 91.826 191.004, 89.779 190.619 C 85.439 189.804, 80.583 186.028, 78.369 181.747 C 76.714 178.546, 76.464 172.520, 77.561 162.275 C 77.931 158.824, 78.040 156, 77.804 156 C 77.568 156, 73.562 157.289, 68.902 158.864 C 57.718 162.645, 50.171 166.413, 45.844 170.377 C 42.398 173.534, 42.259 173.958, 40.213 187.557 C 37.797 203.620, 37.040 210, 37.551 210 C 37.749 210, 39.573 208.873, 41.603 207.495 C 50.873 201.204, 75.946 196.527, 114.494 193.899 C 133.968 192.571, 188.952 193.231, 204.368 194.978 C 209.796 195.593, 214.412 195.921, 214.627 195.707 C 215.127 195.206, 216.666 182.653, 218.016 168.048 C 219.130 156.010, 218.464 151.776, 215.267 150.549 C 212.605 149.528, 196.176 148.074, 179.365 147.372 L 163.229 146.699 161.676 152.100 M 222.556 178.631 C 221.718 181.970, 222.638 182.570, 229.856 183.393 C 240.523 184.610, 252.157 187.307, 254.327 189.066 C 256.131 190.528, 256.494 191.850, 256.466 196.853 C 256.430 203.258, 257.030 203.951, 262.646 203.986 C 264.602 203.999, 264.854 203.301, 265.490 196.110 C 266.230 187.748, 265.407 184.567, 262.251 183.598 C 260.453 183.046, 233.373 177.665, 226.864 176.566 C 223.538 176.005, 223.172 176.180, 222.556 178.631 M 221.667 188.667 C 221.300 189.033, 221 191.031, 221 193.105 C 221 196.854, 221.030 196.881, 225.750 197.482 C 228.363 197.815, 235.113 198.895, 240.750 199.882 L 251 201.676 251 197.376 C 251 193.250, 250.849 193.037, 247.250 192.092 C 242.785 190.919, 226.170 188.008, 223.917 188.003 C 223.046 188.001, 222.033 188.300, 221.667 188.667 M 121.500 199.108 C 112.150 199.552, 98.425 200.617, 91 201.474 C 74.718 203.354, 61.110 205.738, 65.782 205.892 C 70.544 206.049, 80.355 209.553, 89.255 214.275 C 98.284 219.066, 98.785 218.888, 100.505 210.274 C 101.429 205.646, 102.039 204.500, 103.579 204.500 C 105.267 204.500, 105.499 205.249, 105.493 210.675 C 105.488 215.460, 104.992 217.520, 103.289 219.823 C 101.394 222.386, 101.257 223.153, 102.296 225.398 C 103.012 226.946, 104.059 227.791, 104.879 227.482 C 111.078 225.151, 114.881 224.914, 120.931 226.482 C 126.791 228.001, 127.346 227.997, 129.081 226.427 C 130.876 224.802, 130.797 224.636, 126.885 221.802 C 124.429 220.022, 122.048 217.102, 120.854 214.404 C 118.456 208.983, 118.662 202.675, 121.253 202.184 C 122.217 202.002, 123.178 202.448, 123.389 203.176 C 123.599 203.904, 124.269 206.338, 124.877 208.585 C 126.970 216.324, 132.531 216.293, 146 208.468 C 150.125 206.072, 156.088 202.928, 159.250 201.482 C 162.412 200.036, 165 198.691, 165 198.493 C 165 197.891, 139.562 198.251, 121.500 199.108 M 176.887 201.056 C 172.703 202.047, 157.976 207.783, 156.500 208.997 C 155.950 209.449, 151 212.161, 145.500 215.023 C 140 217.884, 136.850 219.938, 138.500 219.586 C 140.150 219.234, 144.200 217.526, 147.500 215.790 C 167.043 205.512, 167.035 205.515, 175.045 205.151 C 188.558 204.535, 201.915 209.506, 220.681 222.135 C 224.631 224.793, 228.104 227.359, 228.399 227.837 C 228.694 228.314, 228.335 229.527, 227.600 230.532 C 226.347 232.246, 225.723 232.001, 217.462 226.561 C 199.558 214.769, 189.253 210.727, 177 210.688 C 170.928 210.669, 168.446 211.167, 163.965 213.303 C 157.432 216.418, 154.396 219.399, 149.567 227.441 C 144.226 236.338, 144.553 239.631, 151.501 246.916 C 159.321 255.114, 171.189 260.948, 180.128 260.988 C 183.717 261.004, 185.851 263.577, 183.897 265.532 C 182.731 266.698, 181.261 266.778, 175.982 265.961 C 159.178 263.361, 140.085 247.980, 140.032 237 C 140.025 235.625, 141.128 232.119, 142.482 229.210 L 144.945 223.920 141.295 224.604 C 138.893 225.055, 136.347 226.654, 133.850 229.278 C 130.183 233.133, 129.896 233.244, 125.278 232.595 C 112.514 230.801, 111.318 230.784, 108.284 232.353 C 106.153 233.455, 105.041 234.918, 104.589 237.215 C 104.233 239.022, 100.987 247.925, 97.375 257 C 87.472 281.884, 87.688 281.151, 88.942 285.616 C 89.542 287.752, 90.595 290.230, 91.283 291.122 C 93.691 294.246, 100.304 298, 103.390 297.994 C 106.893 297.987, 112.090 295.591, 113.303 293.423 C 114.595 291.114, 121.613 288, 125.526 288 C 132.218 288, 136.142 291.450, 135.764 297 C 135.538 300.315, 135.683 300.488, 138.513 300.277 C 140.156 300.154, 142.436 299.557, 143.581 298.949 C 149.088 296.023, 150.760 286.202, 146.750 280.328 C 143.931 276.198, 142.988 275.773, 135.078 275.071 C 131.547 274.757, 128.516 274.050, 128.345 273.500 C 126.881 268.812, 139.214 267.821, 147.343 271.974 C 150.007 273.334, 153.425 276.034, 154.938 277.974 C 158.991 283.167, 178.951 322.964, 178.323 324.599 C 178.028 325.370, 177.005 326, 176.049 326 C 174.284 326, 164.484 308.824, 158.424 295.109 L 155.600 288.717 154.050 293.291 C 151.420 301.050, 145.150 306, 137.950 306 C 136.237 306, 131.759 304.650, 128 303 C 124.241 301.350, 119.595 300, 117.677 300 L 114.190 300 114.739 306.059 C 115.210 311.253, 114.974 312.543, 113.090 315.092 L 110.892 318.065 113.696 317.294 C 122.531 314.865, 131.950 319.038, 148.046 332.514 C 162.226 344.385, 163.713 345.323, 160.963 340.662 C 159.198 337.671, 159.140 337.128, 160.469 336.025 C 162.828 334.068, 164.563 335.407, 167.534 341.481 C 170.182 346.892, 170.262 347.510, 169.613 357.544 C 169.084 365.719, 169.251 368.586, 170.384 370.775 C 172.458 374.786, 176.011 376.372, 181.531 375.749 C 188.330 374.983, 193.784 370.659, 197.764 362.880 C 201.572 355.438, 202.416 351.206, 204.477 329.221 C 206.677 305.747, 209.566 298.727, 221.423 288.046 C 238.952 272.254, 244.841 264.324, 248.565 251.500 C 250.770 243.902, 251.082 224.765, 249.123 217.138 C 247.881 212.299, 247.343 211.597, 243.612 209.946 C 227.852 202.975, 190.053 197.939, 176.887 201.056 M 255.658 210.792 C 260.339 215.131, 263.055 221.245, 263.676 228.839 C 264.269 236.083, 262.537 257.439, 257.947 299.500 C 256.326 314.350, 255 328.205, 255 330.290 C 255 335.616, 258.137 341.153, 263.913 346.024 C 266.635 348.318, 269.219 350.939, 269.655 351.848 C 270.092 352.757, 270.686 359.539, 270.975 366.920 C 271.553 381.699, 272.992 384.909, 274.955 375.802 C 276.927 366.656, 282.890 277.409, 285.228 222.058 L 285.500 215.615 273 212.461 C 266.125 210.726, 258.700 208.982, 256.500 208.586 L 252.500 207.864 255.658 210.792 M 60.451 211.955 C 55.284 212.754, 49.855 215.918, 48.267 219.055 C 46.908 221.741, 46.701 229.377, 47.905 232.453 C 48.570 234.154, 48.746 234.020, 49.266 231.422 C 50.082 227.338, 57.547 219.111, 62.461 216.878 C 64.683 215.869, 68.750 214.997, 71.500 214.940 C 76.485 214.837, 76.491 214.833, 73.500 213.558 C 69.235 211.739, 65.120 211.234, 60.451 211.955 M 164 218.671 C 159.626 220.921, 157.519 222.932, 153.707 228.497 C 147.696 237.274, 147.649 240.136, 153.500 241.146 C 155.700 241.526, 161.488 242.998, 166.362 244.418 C 177.374 247.626, 188.380 247.844, 199.234 245.068 C 206.839 243.123, 219 237.653, 219 236.177 C 219 234.322, 216.003 231.931, 208.187 227.549 C 194.931 220.118, 185.612 216.746, 177 216.263 C 170.275 215.886, 168.932 216.135, 164 218.671 M 255.855 230.171 C 256.235 242.278, 255.776 247.287, 250.370 290 C 245.280 330.212, 245.140 331.689, 246.042 335.688 C 247.059 340.195, 249.815 344.018, 252.861 345.144 L 255.160 345.995 253.155 342.747 C 248.843 335.760, 248.666 332.185, 251.409 307.451 C 257.957 248.413, 259.269 227.955, 256.877 222.171 C 255.616 219.122, 255.530 219.794, 255.855 230.171 M 66.153 221.364 C 62.269 222.770, 56.256 228.179, 55.079 231.327 C 53.046 236.765, 52.950 238.475, 54.873 235 C 57.572 230.120, 60.831 227.324, 65.904 225.534 C 75.735 222.065, 84.270 224.684, 92.868 233.805 C 97.551 238.773, 98.014 239.062, 96.498 236.069 C 93.767 230.673, 85.672 223.417, 80.368 221.610 C 74.876 219.739, 70.836 219.669, 66.153 221.364 M 170.836 222.046 C 168.821 222.382, 165.999 223.426, 164.566 224.365 C 162.105 225.978, 156 233.531, 156 234.964 C 156 236.055, 174.084 240.937, 180.521 241.583 C 184.358 241.968, 189.157 241.619, 193.917 240.610 C 202.006 238.895, 210 236.128, 210 235.043 C 210 234.403, 190.926 225.038, 186.500 223.505 C 182.736 222.201, 174.502 221.434, 170.836 222.046 M 65.304 231.956 C 61.344 234.371, 59.080 237.730, 58.340 242.291 C 57.851 245.304, 58.088 245.893, 60.038 246.512 C 64.596 247.959, 70.363 247.040, 79.825 243.361 C 85.146 241.292, 89.692 239.460, 89.927 239.289 C 90.670 238.750, 84.616 232.882, 81.800 231.411 C 77.813 229.328, 69.145 229.614, 65.304 231.956 M 41.187 251.500 C 40.506 260.300, 39.737 269.975, 39.477 273 C 39.055 277.919, 39.214 277.602, 40.977 270 C 45.078 252.318, 45.417 249.024, 43.863 242 L 42.425 235.500 41.187 251.500 M 124.292 237.250 C 123.011 238.929, 118.708 264.719, 119.496 265.994 C 119.838 266.547, 120.954 267, 121.976 267 C 124.021 267, 124.834 264.159, 127.495 247.707 C 128.567 241.078, 128.664 238.300, 127.857 237.328 C 126.481 235.669, 125.513 235.648, 124.292 237.250 M 307.186 238.276 C 306.084 239.603, 303 246.376, 303 247.468 C 303 247.761, 304.064 248, 305.365 248 C 310.360 248, 315.916 254.839, 316.090 261.200 L 316.180 264.500 317.195 261 C 318.780 255.533, 317.671 243.379, 315.297 240.184 C 313.055 237.168, 308.914 236.194, 307.186 238.276 M 50.766 240.381 C 49.812 241.105, 49.283 241.949, 49.590 242.256 C 50.974 243.641, 49.912 256.488, 47.570 266.690 C 44.806 278.727, 44.389 287.454, 46.017 299.178 C 46.576 303.205, 47.139 319.100, 47.267 334.500 L 47.500 362.500 50.281 367.232 C 53.211 372.216, 56.207 374.518, 58.578 373.608 C 60.442 372.893, 60.388 370.050, 58.346 361.318 C 56.764 354.553, 56.767 353.763, 58.404 347.716 C 59.360 344.185, 61.012 339.864, 62.076 338.115 C 63.655 335.520, 64.345 335.114, 65.833 335.911 C 67.378 336.737, 67.988 336.204, 69.824 332.426 C 73.112 325.657, 79.549 319.198, 84.276 317.926 C 87.683 317.008, 89.149 317.162, 93.743 318.920 C 96.732 320.064, 100.600 320.970, 102.339 320.933 C 105.110 320.873, 104.904 320.705, 100.670 319.567 C 98.013 318.853, 95.105 317.533, 94.206 316.634 C 92.709 315.137, 92.706 314.866, 94.169 313.402 C 95.455 312.117, 96.188 312.030, 97.926 312.960 C 99.113 313.596, 101.739 313.977, 103.761 313.808 C 108.224 313.434, 110.704 309.941, 109.608 305.573 C 109.024 303.246, 108.489 302.865, 106.376 303.268 C 102.378 304.033, 95.996 302.170, 91.641 298.968 C 86.977 295.538, 85.595 295.873, 89.079 299.589 L 91.500 302.170 89.037 304.167 C 85.953 306.669, 81.658 306.005, 77.950 302.452 L 75.327 299.939 69.206 312.885 C 65.839 320.005, 62.572 326.147, 61.946 326.533 C 61.320 326.920, 60.141 326.569, 59.325 325.753 C 58.013 324.442, 58.779 322.256, 65.921 306.924 C 70.364 297.383, 74 288.861, 74 287.985 C 74 284.899, 79.046 276.313, 81.682 274.915 C 83.491 273.955, 85.544 270.927, 88.065 265.500 C 90.109 261.100, 91.650 257.357, 91.489 257.182 C 91.328 257.006, 89.067 258.488, 86.465 260.475 C 75.258 269.030, 63.349 272.395, 64.192 266.769 C 64.419 265.251, 65.700 264.407, 69.071 263.556 C 71.585 262.920, 75.635 261.224, 78.071 259.787 C 83.105 256.816, 95.565 244.688, 94.089 244.196 C 93.555 244.018, 88.598 245.695, 83.073 247.922 C 67.622 254.152, 61.087 254.469, 54.929 249.287 C 52.135 246.936, 51.865 246.244, 52.412 242.827 C 53.099 238.526, 53.136 238.580, 50.766 240.381 M 303.309 255.797 C 304.041 259.453, 302.756 261.431, 300.101 260.737 C 298.010 260.190, 298.011 260.207, 300.248 263.343 C 303.731 268.225, 303.347 274.512, 299.250 279.684 C 295.842 283.988, 295.007 288.405, 297.427 289.334 C 299.239 290.029, 300.415 288.528, 302 283.500 C 302.693 281.300, 304.754 277.025, 306.579 274 C 310.764 267.063, 311.490 264.015, 310.019 259.556 C 308.149 253.893, 302.270 250.598, 303.309 255.797 M 242.189 275.486 C 239.822 278.517, 234.137 284.153, 229.556 288.010 C 214.652 300.561, 212.140 306.335, 209.541 334 C 207.276 358.121, 204.308 366.776, 195.564 374.768 C 187.748 381.911, 180.186 383.630, 172.309 380.053 C 165.933 377.159, 163.709 372.058, 164.154 361.351 C 164.497 353.069, 164.480 353, 162.059 353 C 159.834 353, 159.772 353.113, 161.363 354.276 C 164.660 356.687, 162.376 358.694, 155.694 359.259 C 152.287 359.547, 144.550 361.513, 138.500 363.627 L 127.500 367.471 106 367.196 C 83.550 366.908, 79.578 366.304, 74.318 362.377 C 72.568 361.071, 69.944 359.549, 68.486 358.995 C 66.128 358.098, 65.864 357.520, 66.088 353.744 C 66.527 346.341, 66.088 342.312, 65.026 343.991 C 63.070 347.086, 62.778 355.728, 64.390 362.814 C 65.267 366.671, 65.711 371.193, 65.378 372.862 C 64.152 378.990, 58.600 380.913, 51.994 377.497 C 48.977 375.937, 48.846 375.946, 49.362 377.678 C 49.661 378.680, 50.215 380.850, 50.594 382.500 C 52.433 390.499, 59.372 400.176, 65.886 403.824 L 70.035 406.148 69.595 401.658 C 69.097 396.564, 70.761 393.310, 73.355 394.306 C 74.522 394.754, 75 396.163, 75 399.153 C 75 404.516, 78.300 411.372, 82.352 414.428 C 87.129 418.031, 98.031 420.926, 111.655 422.210 C 132.570 424.181, 145.419 420.844, 155.156 410.911 C 160.250 405.714, 160.994 405.277, 162.656 406.505 C 164.391 407.788, 164.403 408.034, 162.853 410.684 C 161.947 412.233, 158.893 415.413, 156.066 417.750 C 150.088 422.692, 149.800 422.600, 166.144 420.962 C 188.898 418.682, 208.031 413.811, 219.500 407.381 C 234.324 399.068, 241.766 384.303, 243.982 358.806 C 244.940 347.783, 244.880 346.911, 242.933 343.610 C 239.451 337.710, 239.527 331.524, 243.459 300.699 C 245.480 284.858, 246.989 271.466, 246.812 270.937 C 246.636 270.409, 244.556 272.456, 242.189 275.486 M 109 286.108 C 106.283 287.655, 104.051 288.034, 99.024 287.801 C 93.606 287.549, 92.494 287.775, 92.214 289.183 C 91.721 291.661, 95.460 293.200, 101.977 293.200 C 110.068 293.200, 116.849 289.377, 115.410 285.627 C 114.612 283.546, 113.329 283.643, 109 286.108 M 37.558 307.016 C 36.887 325.034, 36.981 326.876, 38.801 331.500 L 40.770 336.500 41.504 325.750 C 42.202 315.538, 40.737 294.496, 38.982 289.516 C 38.597 288.425, 37.957 296.300, 37.558 307.016 M 111.236 323.979 C 104.261 327.145, 100.975 327.360, 94.475 325.076 C 85.976 322.089, 84.800 322.316, 79.762 327.920 C 75.862 332.257, 70.226 343.560, 71.385 344.719 C 71.621 344.954, 73.729 343.760, 76.071 342.064 C 78.412 340.368, 82.586 338.310, 85.347 337.490 C 89.846 336.154, 90.956 336.165, 96.063 337.598 C 101.248 339.053, 102.435 339.056, 109.289 337.639 C 118.352 335.765, 124.951 336.564, 138.500 341.175 C 143.450 342.860, 149.525 344.850, 152 345.597 L 156.500 346.954 152.500 343.431 C 129.516 323.185, 121.407 319.363, 111.236 323.979 M 82 345.029 C 78.975 346.674, 75.433 349.230, 74.128 350.708 L 71.757 353.394 74.628 355.788 C 80.994 361.094, 83.843 361.609, 106.500 361.553 L 127.500 361.500 139 357.754 C 145.325 355.694, 152.300 353.731, 154.500 353.391 L 158.500 352.772 153 351.349 C 149.975 350.566, 142.550 348.312, 136.500 346.339 C 124.547 342.443, 116.735 341.710, 106.986 343.571 C 102.824 344.365, 100.248 344.306, 96.486 343.331 C 89.461 341.510, 88.194 341.659, 82 345.029 M 249.996 354.878 C 249.991 360.551, 247.512 375.903, 245.616 382 C 243.431 389.029, 241.935 392.040, 237.382 398.574 C 232.944 404.944, 229.161 408.308, 222.500 411.809 C 217.624 414.372, 218.538 414.459, 228.643 412.395 C 242.587 409.545, 251.404 405.533, 258.085 398.996 C 261.343 395.808, 264.852 391.315, 265.883 389.012 C 267.544 385.302, 267.599 384.502, 266.359 382.018 C 265.340 379.974, 265.033 375.947, 265.230 367.190 C 265.378 360.578, 265.268 354.936, 264.985 354.653 C 264.702 354.369, 261.215 353.264, 257.235 352.197 L 250 350.256 249.996 354.878 M 308.354 363.772 C 307.174 364.723, 303.810 368.425, 300.878 372 C 297.947 375.575, 294.637 379.282, 293.524 380.239 C 289.658 383.559, 279.683 388, 276.089 388 C 272.847 388, 272.262 388.443, 270.087 392.543 C 268.761 395.042, 265.890 399.115, 263.708 401.595 C 260.134 405.655, 259.976 406.049, 262.119 405.551 C 263.429 405.247, 267.425 404.339, 271 403.533 C 286.209 400.106, 297.159 394.592, 302.399 387.722 C 303.814 385.866, 306.484 379.726, 308.332 374.078 C 310.180 368.430, 312.324 363.408, 313.096 362.919 C 314.185 362.230, 314.052 362.032, 312.500 362.038 C 311.400 362.041, 309.534 362.822, 308.354 363.772 M 89 375.831 C 80.586 378.625, 77 380.784, 77 383.057 C 77 385.991, 79.248 386.376, 83.105 384.102 C 95.359 376.880, 113.633 377.630, 131.888 386.106 C 136.502 388.247, 140.841 390, 141.531 390 C 143.079 390, 144.054 387.706, 143.138 386.223 C 142.191 384.692, 131.762 379.640, 124 376.952 C 114.893 373.800, 96.860 373.222, 89 375.831" stroke="none" fill="url(#onm)" fill-rule="evenodd"/></g></svg>